<?xml version="1.0" encoding="UTF-8"?>
<!DOCTYPE svg  PUBLIC '-//W3C//DTD SVG 1.1//EN'  'http://www.w3.org/Graphics/SVG/1.1/DTD/svg11.dtd'>
<svg version="1.1" viewBox="0 0 599 599" xmlns="http://www.w3.org/2000/svg">
<defs>
<clipPath id="b">
<path d="m-1-0.077h600.08v600.02h-600.08z"/>
</clipPath>
<clipPath id="a">
<path d="m-1-0.077h600.08v600.02h-600.08z"/>
</clipPath>
</defs>
<g clip-path="url(#b)">
<path d="m-1-0.077h600.08v600.02h-600.08z" fill="#73BFD2"/>
<path d="m-1 448.55c74.407-1.786 211.51-3.054 254.36-50.601 65.019-72.15 19.732-240.6-129.63-218.06 355.54-149.03 249.47 270.39 475.34 268.66v151.44h-600.08v-151.44" fill="#3899B8"/>
</g>
<path d="m282.02 323.76c2.978-54.247-24.014-113.57-80.089-136.32l17-36.382c242.07-38.887 177.32 299.05 380.14 297.49-91.842 28.267-157.75-60.682-242.85-39.675 4.643-62.394-5.919-107.17-74.18-85.11l-0.017-5e-3" fill="#29819F"/>
<path d="m521.81 427.4c-99.194-72.104-108.3-307.13-284.49-303.13-1.733-4.621-6.191-7.913-11.417-7.913-3.802 0-7.197 1.741-9.432 4.469-3.24-4.734-8.683-7.839-14.853-7.839-6.424 0-12.06 3.369-15.243 8.435-3.225-5.511-9.206-9.213-16.052-9.213-8.003 0-14.823 5.057-17.443 12.149-2.046-1.289-4.468-2.035-7.064-2.035-2.33 0-4.52 0.601-6.422 1.655-4.081-4.068-9.71-6.583-15.928-6.583-11.796 0-21.476 9.054-22.475 20.592-1.778-0.409-3.63-0.623-5.532-0.623-13.525 0-24.502 10.898-24.633 24.392-0.259-9e-3 -0.519-0.016-0.781-0.016-11.6 0-21.004 9.405-21.004 21.005 0 2.723 0.517 5.324 1.46 7.711-6.791 4.204-11.315 11.722-11.315 20.296 0 6.16 2.334 11.774 6.166 16.006-2.981 3.727-4.765 8.454-4.765 13.597 0 6.336 2.706 12.039 7.025 16.02-1.42 3.733-2.2 7.779-2.2 12.009 0 18.653 15.121 33.774 33.774 33.774 1.209 0 2.404-0.063 3.58-0.187-0.348 1.827-0.533 3.712-0.533 5.639 0 16.543 13.41 29.954 29.952 29.954 8.661 0 16.462-3.679 21.93-9.555 4.576 5.46 11.446 8.934 19.128 8.934 13.776 0 24.946-11.169 24.946-24.946 0-0.39-0.01-0.779-0.028-1.165 8.49-0.462 15.511-6.442 17.54-14.416 0.831 0.145 1.686 0.221 2.558 0.221 6.469 0 11.967-4.157 13.97-9.944 2.285 1.734 5.136 2.765 8.226 2.765 6.436 0 11.828-4.467 13.248-10.469 1.151 0.48 2.413 0.744 3.738 0.744 3.067 0 5.801-1.42 7.583-3.637 2.612 3.32 6.666 5.452 11.218 5.452 6.83 0 12.538-4.8 13.934-11.211 1.648 1.335 3.748 2.135 6.034 2.135 3.94 0 7.325-2.378 8.803-5.775 1.659 3.419 5.165 5.775 9.22 5.775 3.906 0 7.303-2.188 9.031-5.406 4.325 1.249 8.582 2.733 12.779 4.426-0.102 0.578-0.155 1.174-0.155 1.781 0 5.598 4.538 10.137 10.135 10.137 3.041 0 5.77-1.339 7.628-3.461 4.915 2.733 9.749 5.725 14.513 8.933-0.079 0.482-0.121 0.978-0.121 1.483 0 5.013 4.063 9.076 9.076 9.076 1.523 0 2.96-0.376 4.22-1.038 10.756 8.28 21.186 17.501 31.412 27.119-3.144-0.219-6.396-0.166-9.767 0.189-1.651-3.133-4.938-5.268-8.725-5.268-2.588 0-4.942 0.997-6.701 2.627-3.212-3.372-7.743-5.474-12.769-5.474-9.738 0-17.633 7.894-17.633 17.634 0 0.232 4e-3 0.465 0.014 0.695-4.077 1.177-7.194 4.617-7.902 8.872-2.317-0.984-4.865-1.528-7.543-1.528-10.67 0-19.319 8.649-19.319 19.319 0 8.864 5.97 16.333 14.109 18.609-1.867 2.755-2.958 6.08-2.958 9.659 0 9.524 7.721 17.245 17.245 17.245 6.052 0 11.376-3.119 14.452-7.834 1.198 4.941 5.652 8.612 10.962 8.612 5.934 0 10.798-4.583 11.248-10.402 0.933 0.189 1.897 0.287 2.884 0.287 8.022 0 14.524-6.502 14.524-14.522 0-1.781-0.321-3.486-0.908-5.062 4.394-2.71 8.765-4.495 13.113-5.527 1.602 3.929 5.461 6.7 9.968 6.7 4.502 0 8.356-2.766 9.963-6.69 20.92 4.466 41.166 21.056 60.474 30.49 14.357 10.626 29.011 18.909 44.326 23.251" fill="#E2F2F5"/>
<path d="m105.54 336.82c2.14 0.486 4.367 0.744 6.653 0.744 8.661 0 16.462-3.679 21.93-9.555 4.576 5.46 11.446 8.934 19.128 8.934 13.776 0 24.946-11.169 24.946-24.946 0-0.39-0.01-0.779-0.028-1.165 8.49-0.462 15.511-6.442 17.54-14.416 0.831 0.145 1.686 0.221 2.558 0.221 6.469 0 11.967-4.157 13.97-9.944 2.285 1.734 5.136 2.765 8.226 2.765 6.436 0 11.828-4.467 13.248-10.469 1.151 0.48 2.413 0.744 3.738 0.744 3.067 0 5.801-1.42 7.583-3.637 2.612 3.32 6.666 5.452 11.218 5.452 6.83 0 12.538-4.8 13.934-11.211 1.648 1.335 3.748 2.135 6.034 2.135 3.94 0 7.325-2.378 8.803-5.775 1.659 3.419 5.165 5.775 9.22 5.775 3.906 0 7.303-2.188 9.031-5.406 4.325 1.249 8.582 2.733 12.779 4.426-0.102 0.578-0.155 1.174-0.155 1.781 0 5.598 4.538 10.137 10.135 10.137 3.041 0 5.77-1.339 7.628-3.461 4.915 2.733 9.749 5.725 14.513 8.933-0.079 0.482-0.121 0.978-0.121 1.483 0 5.013 4.063 9.076 9.076 9.076 1.523 0 2.96-0.376 4.22-1.038 10.756 8.28 21.186 17.501 31.412 27.119-3.144-0.219-6.396-0.166-9.767 0.189-1.651-3.133-4.938-5.268-8.725-5.268-2.588 0-4.942 0.997-6.701 2.627-3.212-3.372-7.743-5.474-12.769-5.474-9.738 0-17.633 7.894-17.633 17.634 0 0.232 4e-3 0.465 0.014 0.695-4.077 1.177-7.194 4.617-7.902 8.872-2.317-0.984-4.865-1.528-7.543-1.528-10.67 0-19.319 8.649-19.319 19.319 0 8.864 5.97 16.333 14.109 18.609-1.867 2.755-2.958 6.08-2.958 9.659 0 9.524 7.721 17.245 17.245 17.245 6.052 0 11.376-3.119 14.452-7.834 1.198 4.941 5.652 8.612 10.962 8.612 5.934 0 10.798-4.583 11.248-10.402 0.933 0.189 1.897 0.287 2.884 0.287 8.022 0 14.524-6.502 14.524-14.522 0-1.781-0.321-3.486-0.908-5.062 4.394-2.71 8.765-4.495 13.113-5.527 1.602 3.929 5.461 6.7 9.968 6.7 4.502 0 8.356-2.766 9.963-6.69 20.92 4.466 41.166 21.056 60.474 30.49 9.564 7.078 19.258 13.117 29.194 17.643-38.55-25.307-60.473-39.491-87.245-85.346-46.07-79.082-98.892-113.92-192.71-99.278-99.129 28.869-72.107 90.317-121.19 99.648" fill="#C9E1E4"/>
<path d="m85.359 228.39c12.855 0 23.339-10.484 23.339-23.339s-10.484-23.34-23.339-23.34-23.339 10.485-23.339 23.34 10.484 23.339 23.339 23.339" fill="#FFFFFE"/>
<path d="m112.85 204.53c11.712 0 21.264-9.552 21.264-21.264s-9.552-21.265-21.264-21.265-21.266 9.553-21.266 21.265 9.554 21.264 21.266 21.264" fill="#FFFFFE"/>
<path d="m140.86 191.56c12.57 0 22.821-10.251 22.821-22.821 0-12.569-10.251-22.821-22.821-22.821-12.569 0-22.821 10.252-22.821 22.821 0 12.57 10.252 22.821 22.821 22.821" fill="#FFFFFE"/>
<path d="m163.08 164.96c9.956 0 18.077-8.12 18.077-18.077 0-9.956-8.121-18.076-18.077-18.076s-18.077 8.12-18.077 18.076c0 9.957 8.121 18.077 18.077 18.077" fill="#FFFFFE"/>
<path d="m232.14 185.34c10.284 0 18.671-8.388 18.671-18.672s-8.387-18.671-18.671-18.671-18.672 8.387-18.672 18.671 8.388 18.672 18.672 18.672" fill="#FFFFFE"/>
<path d="m217.87 215.42c13.284 0 24.117-10.834 24.117-24.118 0-13.283-10.833-24.117-24.117-24.117-13.282 0-24.117 10.834-24.117 24.117 0 13.284 10.835 24.118 24.117 24.118" fill="#FFFFFE"/>
<path d="m301.9 196.75c8.427 0 15.3-6.873 15.3-15.301 0-8.427-6.873-15.3-15.3-15.3s-15.298 6.873-15.298 15.3c0 8.428 6.871 15.301 15.298 15.301" fill="#FFFFFE"/>
<path d="m289.71 222.16c11.427 0 20.746-9.32 20.746-20.746s-9.319-20.746-20.746-20.746c-11.426 0-20.746 9.32-20.746 20.746s9.32 20.746 20.746 20.746" fill="#FFFFFE"/>
<path d="m364.91 241.87c9.142 0 16.598-7.456 16.598-16.596 0-9.142-7.456-16.599-16.598-16.599-9.141 0-16.597 7.457-16.597 16.599 0 9.14 7.456 16.596 16.597 16.596" fill="#FFFFFE"/>
<path d="m172.88 170.82c7.498 0 13.614-6.116 13.614-13.615 0-7.498-6.116-13.614-13.614-13.614-7.499 0-13.615 6.116-13.615 13.614 0 7.499 6.116 13.615 13.615 13.615" fill="#E2F2F5"/>
<path d="m158.1 195.97c10.355 0 18.8-8.445 18.8-18.8s-8.445-18.802-18.8-18.802-18.802 8.447-18.802 18.802 8.447 18.8 18.802 18.8" fill="#E2F2F5"/>
<path d="m126.46 216.98c12.784 0 23.21-10.427 23.21-23.211 0-12.783-10.426-23.21-23.21-23.21-12.783 0-23.209 10.427-23.209 23.21 0 12.784 10.426 23.211 23.209 23.211" fill="#E2F2F5"/>
<path d="m94.432 229.98c9.57 0 17.375-7.805 17.375-17.375s-7.805-17.375-17.375-17.375-17.375 7.805-17.375 17.375 7.805 17.375 17.375 17.375" fill="#E2F2F5"/>
<path d="m227.08 223.72c11.069 0 20.098-9.028 20.098-20.098s-9.029-20.098-20.098-20.098c-11.07 0-20.098 9.028-20.098 20.098s9.028 20.098 20.098 20.098" fill="#E2F2F5"/>
<path d="m237.32 192.6c8.57 0 15.559-6.99 15.559-15.56s-6.989-15.559-15.559-15.559c-8.569 0-15.56 6.989-15.56 15.559s6.991 15.56 15.56 15.56" fill="#E2F2F5"/>
<path d="m301.64 226.83c10.285 0 18.673-8.387 18.673-18.672 0-10.283-8.388-18.671-18.673-18.671-10.284 0-18.671 8.388-18.671 18.671 0 10.285 8.387 18.672 18.671 18.672" fill="#E2F2F5"/>
<path d="m310.45 200.64c6.428 0 11.67-5.242 11.67-11.67 0-6.427-5.242-11.67-11.67-11.67-6.426 0-11.669 5.243-11.669 11.67 0 6.428 5.243 11.67 11.669 11.67" fill="#E2F2F5"/>
<g clip-path="url(#a)">
<path d="m372.69 257.43c10.571 0 19.192-8.62 19.192-19.19s-8.621-19.191-19.192-19.191c-10.568 0-19.189 8.621-19.189 19.191s8.621 19.19 19.189 19.19" fill="#E2F2F5"/>
<path d="m-1 532.06h600.08v67.881h-600.08z" fill="#29819F"/>
<path d="m-1 579.78h600.08v20.165h-600.08z" fill="#1D6E8A"/>
</g>
</svg>
