<?xml version="1.0" standalone="no"?>
<!DOCTYPE svg PUBLIC "-//W3C//DTD SVG 20010904//EN"
 "http://www.w3.org/TR/2001/REC-SVG-20010904/DTD/svg10.dtd">
<svg version="1.0" xmlns="http://www.w3.org/2000/svg"
 width="497.000000pt" height="502.000000pt" viewBox="0 0 497.000000 502.000000"
 preserveAspectRatio="xMidYMid meet">

<g transform="translate(0.000000,502.000000) scale(0.100000,-0.100000)"
fill="#000000" stroke="none">
<path d="M412 4574 c-16 -11 -17 -43 -15 -406 1 -391 10 -645 21 -633 3 3 7
65 8 138 3 141 11 278 21 367 5 45 8 50 14 30 4 -14 8 -47 9 -75 1 -27 5 -61
9 -75 12 -39 21 78 35 418 5 111 16 79 17 -49 0 -68 2 -135 4 -149 2 -14 5
-97 6 -185 6 -311 14 -276 19 81 4 286 8 365 19 378 13 15 51 16 402 14 259
-2 385 0 378 7 -6 6 -148 12 -357 16 -191 4 -354 8 -362 9 -37 5 68 20 209 30
85 5 157 12 160 15 7 8 -20 25 -41 25 -9 0 -19 4 -22 9 -13 20 68 33 244 38
102 3 187 7 190 10 2 2 -210 3 -473 2 -368 -2 -481 -5 -495 -15z"/>
<path d="M2787 4583 c13 -2 30 -14 38 -26 11 -15 15 -17 15 -6 0 23 -21 39
-49 38 -24 -2 -24 -2 -4 -6z"/>
<path d="M4020 4580 c-73 -3 -102 -7 -70 -9 30 -1 49 -5 42 -8 -6 -2 -10 -9
-6 -14 3 -5 -1 -9 -9 -9 -8 0 -29 -8 -48 -17 -33 -17 -33 -17 -9 -23 14 -4 95
-10 180 -14 85 -3 169 -10 185 -15 33 -10 58 -9 -315 -20 l-205 -6 290 -8
c208 -6 294 -12 303 -21 9 -9 14 -83 18 -292 3 -153 7 -280 8 -282 2 -1 6 98
10 220 4 123 10 241 13 263 6 39 7 40 14 12 4 -16 11 -76 15 -133 4 -58 10
-107 15 -110 8 -5 25 47 31 96 2 14 9 -18 16 -70 28 -204 29 -198 30 100 0
162 -3 306 -7 320 -5 17 -16 26 -39 31 -53 11 -327 16 -462 9z"/>
<path d="M1744 4547 c-2 -7 -3 -76 -2 -152 l3 -140 5 153 c3 83 4 152 2 152
-1 0 -5 -6 -8 -13z"/>
<path d="M3094 4516 c-10 -8 -15 -18 -11 -22 4 -5 12 -2 16 5 14 22 51 4 51
-26 0 -21 2 -24 15 -13 48 40 -19 94 -71 56z"/>
<path d="M2500 4464 c0 -7 27 -34 34 -34 13 0 5 16 -14 28 -11 7 -20 10 -20 6z"/>
<path d="M3083 4335 c0 -22 2 -30 4 -17 2 12 2 30 0 40 -3 9 -5 -1 -4 -23z"/>
<path d="M2140 4332 c0 -5 7 -13 16 -16 10 -4 14 -1 12 6 -5 15 -28 23 -28 10z"/>
<path d="M2242 4295 c0 -16 2 -22 5 -12 2 9 2 23 0 30 -3 6 -5 -1 -5 -18z"/>
<path d="M2782 4257 c-19 -25 -20 -46 -3 -61 15 -14 19 -14 39 0 18 12 20 18
10 39 -13 29 -33 38 -46 22z"/>
<path d="M4962 4240 c0 -14 2 -19 5 -12 2 6 2 18 0 25 -3 6 -5 1 -5 -13z"/>
<path d="M2532 4224 c-26 -18 -20 -34 13 -34 21 0 45 24 45 44 0 12 -36 6 -58
-10z"/>
<path d="M4405 3470 l-100 -6 102 -2 c59 -1 104 2 108 8 3 6 3 9 -2 8 -4 -1
-53 -5 -108 -8z"/>
<path d="M478 3463 c6 -2 18 -2 25 0 6 3 1 5 -13 5 -14 0 -19 -2 -12 -5z"/>
<path d="M1428 3273 c12 -2 30 -2 40 0 9 3 -1 5 -23 4 -22 0 -30 -2 -17 -4z"/>
<path d="M440 3262 c-36 -11 -55 -54 -38 -89 17 -36 45 -42 223 -49 116 -4
146 -3 132 6 -11 7 -78 14 -160 17 -178 5 -187 7 -187 37 0 44 28 56 136 57
54 1 124 4 154 9 l55 7 -80 2 c-44 0 -109 3 -145 6 -36 2 -76 1 -90 -3z"/>
<path d="M865 3230 c3 -5 12 -10 20 -10 8 0 18 -8 24 -17 5 -10 13 -15 17 -10
11 10 -26 47 -48 47 -11 0 -16 -4 -13 -10z"/>
<path d="M4505 3230 c3 -5 8 -10 11 -10 2 0 4 5 4 10 0 6 -5 10 -11 10 -5 0
-7 -4 -4 -10z"/>
<path d="M4368 3143 c6 -2 18 -2 25 0 6 3 1 5 -13 5 -14 0 -19 -2 -12 -5z"/>
<path d="M4453 3143 c15 -2 37 -2 50 0 12 2 0 4 -28 4 -27 0 -38 -2 -22 -4z"/>
<path d="M1655 2879 c56 -11 95 -11 95 1 0 6 -28 10 -67 9 -63 -1 -65 -2 -28
-10z"/>
<path d="M1212 2747 c-44 -45 -64 -77 -48 -77 7 0 110 110 114 121 9 22 -18 5
-66 -44z"/>
<path d="M4422 2778 c-7 -7 -12 -21 -12 -32 0 -19 1 -19 13 -2 12 17 47 14 47
-5 0 -5 7 -9 15 -9 16 0 19 17 9 44 -7 19 -55 21 -72 4z"/>
<path d="M391 2714 c-14 -18 -21 -41 -21 -71 0 -38 5 -50 34 -79 30 -30 40
-34 84 -34 33 0 56 6 67 16 21 21 48 74 41 81 -3 3 -10 -5 -15 -18 -14 -38
-47 -61 -93 -66 -36 -4 -47 -1 -66 20 -31 33 -36 125 -8 156 11 12 14 21 8 21
-6 0 -20 -12 -31 -26z"/>
<path d="M440 2676 c-30 -37 27 -105 67 -80 25 15 38 61 23 79 -16 19 -74 19
-90 1z m67 -22 c7 -19 -20 -49 -36 -40 -12 8 -15 39 -4 49 12 12 33 7 40 -9z"/>
<path d="M672 2387 c-12 -33 -17 -95 -7 -85 6 6 26 110 22 114 -2 2 -9 -11
-15 -29z"/>
<path d="M411 2296 c-13 -16 -17 -76 -13 -208 2 -101 13 -118 74 -118 39 0 40
1 34 28 -3 15 -9 77 -12 137 -7 138 -18 175 -49 175 -12 0 -28 -6 -34 -14z"/>
<path d="M661 2210 c0 -19 4 -42 9 -50 8 -12 10 -10 9 10 -1 14 -5 36 -9 50
-7 23 -8 22 -9 -10z"/>
<path d="M1188 1913 c12 -2 30 -2 40 0 9 3 -1 5 -23 4 -22 0 -30 -2 -17 -4z"/>
<path d="M430 1813 c-44 -16 -56 -107 -20 -143 19 -19 31 -20 163 -18 l142 3
1 50 c1 29 0 36 -3 17 -6 -45 -31 -53 -150 -46 -147 8 -145 7 -141 57 l3 42
125 6 c69 3 133 2 143 -3 12 -6 17 -5 17 6 0 8 -8 17 -17 20 -29 8 -247 16
-263 9z"/>
<path d="M1055 1709 c-4 -6 -5 -12 -2 -15 2 -3 7 2 10 11 7 17 1 20 -8 4z"/>
<path d="M1110 1703 c0 -6 9 -21 21 -34 l20 -24 -17 30 c-24 39 -24 40 -24 28z"/>
<path d="M880 1681 c0 -5 7 -15 17 -22 15 -13 15 -12 4 9 -12 23 -21 28 -21
13z"/>
<path d="M1193 1633 c9 -2 23 -2 30 0 6 3 -1 5 -18 5 -16 0 -22 -2 -12 -5z"/>
<path d="M2427 1583 c-4 -3 -7 -16 -6 -27 0 -19 1 -19 10 3 10 24 8 36 -4 24z"/>
<path d="M414 1459 c-18 -20 -19 -44 -22 -428 -4 -410 3 -636 18 -661 7 -12
12 -11 27 2 13 12 23 14 33 8 8 -5 78 -10 155 -9 195 0 733 24 741 32 13 13
-65 37 -120 37 -30 0 -58 5 -61 10 -3 6 -27 10 -52 10 -65 0 -50 7 27 14 194
17 197 18 224 43 27 25 27 26 22 126 -3 56 -9 221 -12 367 -4 146 -11 273 -16
283 -5 9 -16 17 -25 17 -15 0 -15 -2 -1 -17 14 -15 16 -71 19 -385 3 -240 0
-371 -6 -377 -7 -7 -149 -11 -394 -11 -310 -1 -385 1 -392 12 -5 7 -8 185 -6
396 1 210 -1 382 -4 382 -16 0 -22 -51 -33 -280 -12 -263 -20 -261 -32 10 -7
154 -8 158 -34 135 -19 -17 -20 -17 -31 11 -6 16 -12 83 -13 149 l-1 120 283
6 c155 3 285 9 289 12 3 4 -122 7 -279 7 -277 0 -285 -1 -304 -21z m43 -366
c-3 -10 -5 -2 -5 17 0 19 2 27 5 18 2 -10 2 -26 0 -35z"/>
<path d="M4510 1443 c29 -33 32 -41 27 -86 -4 -45 -3 -48 9 -32 8 10 14 27 14
37 0 28 -28 89 -48 104 -33 25 -34 14 -2 -23z"/>
<path d="M4404 1406 c-22 -34 -14 -68 18 -84 51 -24 101 22 81 75 -15 41 -74
46 -99 9z"/>
<path d="M4408 1263 c7 -3 16 -2 19 1 4 3 -2 6 -13 5 -11 0 -14 -3 -6 -6z"/>
<path d="M4190 1178 l-53 -63 58 57 c33 32 57 60 54 63 -3 3 -30 -23 -59 -57z"/>
<path d="M773 1149 c-10 -4 43 -7 117 -7 149 1 148 5 -2 10 -53 2 -105 1 -115
-3z"/>
<path d="M2475 1129 c-6 -18 -13 -20 -44 -16 l-36 6 37 -34 c43 -40 82 -46 98
-15 13 24 0 54 -30 70 -15 8 -20 6 -25 -11z m32 -45 c-3 -3 -12 -4 -19 -1 -8
3 -5 6 6 6 11 1 17 -2 13 -5z"/>
<path d="M4165 1030 c-13 -25 -16 -52 -13 -114 3 -73 6 -86 31 -115 23 -27 27
-42 25 -75 -2 -27 -8 -42 -19 -44 -12 -2 -14 5 -11 32 3 25 -2 40 -17 55 -42
42 -101 14 -101 -48 0 -50 19 -65 70 -58 43 6 54 -8 18 -22 -35 -13 -91 -1
-110 23 -10 11 -18 16 -18 9 0 -6 14 -23 31 -38 27 -22 40 -25 82 -23 65 4 92
36 92 108 0 40 -5 54 -30 80 -29 30 -30 34 -28 121 1 49 7 98 13 110 7 11 9
23 7 26 -3 3 -13 -10 -22 -27z m-24 -286 c9 -11 10 -20 2 -32 -13 -22 -43 -22
-56 -1 -24 38 25 68 54 33z"/>
<path d="M731 895 c0 -163 9 -227 23 -172 8 35 -4 297 -15 317 -5 9 -8 -54 -8
-145z"/>
<path d="M4426 971 c-8 -12 22 -23 43 -16 32 9 42 -8 32 -58 -9 -48 -3 -58 19
-32 16 19 7 94 -12 106 -17 11 -75 11 -82 0z"/>
<path d="M1810 942 c0 -4 14 -13 30 -19 34 -13 37 -11 14 11 -16 17 -44 22
-44 8z"/>
<path d="M1706 917 c-8 -28 7 -82 27 -94 6 -4 7 -1 2 6 -4 7 -11 36 -15 65 -6
46 -7 48 -14 23z"/>
<path d="M3737 824 c-14 -15 7 -24 55 -24 l51 0 -5 -37 c-3 -21 -2 -47 3 -58
5 -13 8 1 8 43 1 58 -1 63 -25 72 -29 11 -77 13 -87 4z"/>
<path d="M4874 560 c0 -151 2 -213 3 -138 2 76 2 200 0 276 -1 75 -3 13 -3
-138z"/>
<path d="M4963 735 c0 -33 2 -45 4 -27 2 18 2 45 0 60 -2 15 -4 0 -4 -33z"/>
<path d="M823 745 c0 -8 7 -17 15 -20 19 -7 24 -2 16 19 -8 20 -31 21 -31 1z"/>
<path d="M910 730 c0 -5 9 -10 21 -10 11 0 17 5 14 10 -3 6 -13 10 -21 10 -8
0 -14 -4 -14 -10z"/>
<path d="M2385 695 c4 -11 9 -66 12 -123 3 -56 8 -100 11 -98 2 3 4 49 3 102
-1 71 -6 103 -18 118 -15 20 -15 20 -8 1z"/>
<path d="M794 669 c-4 -8 21 -9 87 -4 52 4 96 9 98 11 2 2 -37 4 -87 4 -54 0
-94 -4 -98 -11z"/>
<path d="M3735 670 c3 -5 28 -10 56 -10 27 0 49 5 49 10 0 6 -25 10 -56 10
-34 0 -53 -4 -49 -10z"/>
<path d="M2130 646 c0 -2 8 -10 18 -17 15 -13 16 -12 3 4 -13 16 -21 21 -21
13z"/>
<path d="M2015 630 c3 -5 8 -10 11 -10 2 0 4 5 4 10 0 6 -5 10 -11 10 -5 0 -7
-4 -4 -10z"/>
<path d="M2056 573 c7 -21 13 -77 14 -124 0 -60 4 -88 13 -92 18 -7 7 214 -12
237 -23 27 -29 18 -15 -21z"/>
<path d="M3090 540 c-9 -6 -10 -10 -3 -10 6 0 15 5 18 10 8 12 4 12 -15 0z"/>
<path d="M1744 495 c-20 -30 -15 -122 7 -136 19 -12 32 -11 24 2 -4 6 -9 32
-10 59 -4 59 9 74 65 68 22 -2 40 -1 40 2 0 17 -29 30 -67 30 -34 0 -46 -5
-59 -25z"/>
<path d="M2733 450 c0 -41 2 -58 4 -37 2 20 2 54 0 75 -2 20 -4 3 -4 -38z"/>
<path d="M4295 509 c-11 -7 -23 -17 -27 -23 -11 -16 -10 -84 2 -107 11 -19 40
-26 54 -11 4 4 38 7 74 8 37 1 74 3 82 5 9 2 14 -2 12 -9 -2 -9 6 -12 20 -10
20 3 23 9 26 58 5 86 -6 94 -125 98 -62 1 -105 -2 -118 -9z"/>
<path d="M3248 499 c10 -11 88 -15 380 -19 339 -5 367 -6 370 -22 2 -10 -3
-31 -11 -48 -14 -27 -14 -30 5 -36 26 -8 38 10 38 59 0 45 -16 81 -33 70 -14
-8 -710 -6 -740 3 -18 5 -20 4 -9 -7z"/>
<path d="M2532 470 c0 -14 2 -19 5 -12 2 6 2 18 0 25 -3 6 -5 1 -5 -13z"/>
<path d="M3047 483 c-4 -3 -7 -11 -7 -17 0 -6 5 -5 12 2 6 6 9 14 7 17 -3 3
-9 2 -12 -2z"/>
<path d="M3107 472 c-20 -22 -21 -41 -4 -63 15 -20 53 -33 61 -21 3 5 -8 12
-25 16 -24 5 -30 10 -27 28 4 29 34 35 58 13 27 -24 42 -16 27 15 -16 32 -66
39 -90 12z"/>
<path d="M2413 425 c0 -22 2 -30 4 -17 2 12 2 30 0 40 -3 9 -5 -1 -4 -23z"/>
<path d="M1872 410 c0 -19 2 -27 5 -17 2 9 2 25 0 35 -3 9 -5 1 -5 -18z"/>
<path d="M2192 395 c0 -16 2 -22 5 -12 2 9 2 23 0 30 -3 6 -5 -1 -5 -18z"/>
<path d="M2532 395 c0 -16 2 -22 5 -12 2 9 2 23 0 30 -3 6 -5 -1 -5 -18z"/>
<path d="M3040 401 c0 -5 5 -13 10 -16 6 -3 10 -2 10 4 0 5 -4 13 -10 16 -5 3
-10 2 -10 -4z"/>
<path d="M3220 370 c-9 -6 -10 -10 -3 -10 6 0 15 5 18 10 8 12 4 12 -15 0z"/>
<path d="M603 353 c76 -2 198 -2 270 0 73 1 11 3 -138 3 -148 0 -208 -2 -132
-3z"/>
<path d="M2150 350 l-35 -7 32 -2 c17 0 35 4 38 9 3 6 5 9 3 9 -2 -1 -19 -5
-38 -9z"/>
<path d="M3170 340 c-13 -8 -13 -10 2 -10 9 0 20 5 23 10 8 13 -5 13 -25 0z"/>
</g>
</svg>
